<?xml version="1.0" encoding="UTF-8"?>
<!DOCTYPE svg PUBLIC "-//W3C//DTD SVG 1.1//EN" "http://www.w3.org/Graphics/SVG/1.1/DTD/svg11.dtd">
<!-- Creator: CorelDRAW X7 -->
<svg xmlns="http://www.w3.org/2000/svg" xml:space="preserve" width="80mm" height="80mm" version="1.1" style="shape-rendering:geometricPrecision; text-rendering:geometricPrecision; image-rendering:optimizeQuality; fill-rule:evenodd; clip-rule:evenodd"
viewBox="0 0 8000 8000"
 xmlns:xlink="http://www.w3.org/1999/xlink">
 <defs>
  <style type="text/css">
   <![CDATA[
    .fil26 {fill:none}
    .fil18 {fill:#E6E6E6}
    .fil19 {fill:#787979}
    .fil3 {fill:#6A6A6B}
    .fil16 {fill:#4D4D4F}
    .fil17 {fill:#4D4D4F}
    .fil5 {fill:#8B8C8C}
    .fil4 {fill:#D6D6D7}
    .fil9 {fill:#DBDBDB}
    .fil7 {fill:#DFE0E0}
    .fil20 {fill:#E6E6E7}
    .fil22 {fill:white}
    .fil24 {fill:#FEFEFE;fill-rule:nonzero}
    .fil25 {fill:#EBECEC;fill-rule:nonzero}
    .fil21 {fill:url(#id1)}
    .fil23 {fill:url(#id2)}
    .fil6 {fill:url(#id3)}
    .fil12 {fill:url(#id4)}
    .fil14 {fill:url(#id5)}
    .fil15 {fill:url(#id6)}
    .fil13 {fill:url(#id7)}
    .fil8 {fill:url(#id8)}
    .fil11 {fill:url(#id9)}
    .fil10 {fill:url(#id10)}
    .fil1 {fill:url(#id11)}
    .fil2 {fill:url(#id12)}
    .fil0 {fill:url(#id13)}
   ]]>
  </style>
   <clipPath id="id0">
    <path d="M3840 113c2051,0 3713,1646 3713,3676 0,1990 -1598,3611 -3593,3674l-240 0c-1995,-63 -3592,-1684 -3592,-3674 0,-2030 1662,-3676 3712,-3676z"/>
   </clipPath>
  <linearGradient id="id1" gradientUnits="userSpaceOnUse" x1="3802.87" y1="4515.07" x2="3877.97" y2="4874.11">
   <stop offset="0" style="stop-opacity:1; stop-color:#787979"/>
   <stop offset="1" style="stop-opacity:1; stop-color:#FEFEFE"/>
  </linearGradient>
  <linearGradient id="id2" gradientUnits="userSpaceOnUse" x1="4930.39" y1="5228.64" x2="4131.47" y2="5693.62">
   <stop offset="0" style="stop-opacity:1; stop-color:silver"/>
   <stop offset="1" style="stop-opacity:1; stop-color:#FEFEFE"/>
  </linearGradient>
  <linearGradient id="id3" gradientUnits="userSpaceOnUse" x1="5587.35" y1="3396.78" x2="5180.79" y2="2808.3">
   <stop offset="0" style="stop-opacity:1; stop-color:#C8C8C8"/>
   <stop offset="1" style="stop-opacity:1; stop-color:#FEFEFE"/>
  </linearGradient>
  <linearGradient id="id4" gradientUnits="userSpaceOnUse" x1="3890.44" y1="2154.81" x2="3768.72" y2="2154.81">
   <stop offset="0" style="stop-opacity:1; stop-color:#7D7D80"/>
   <stop offset="1" style="stop-opacity:1; stop-color:#FEFEFE"/>
  </linearGradient>
  <linearGradient id="id5" gradientUnits="userSpaceOnUse" xlink:href="#id2" x1="2684.48" y1="4027.65" x2="3026.52" y2="3450.49">
  </linearGradient>
  <radialGradient id="id6" gradientUnits="userSpaceOnUse" gradientTransform="matrix(-0.364064 -1.34446 0.329646 0.0592433 4582 8394)" cx="4099.29" cy="3063.9" r="333.54" fx="4099.29" fy="3063.9">
   <stop offset="0" style="stop-opacity:1; stop-color:#FEFEFE"/>
   <stop offset="1" style="stop-opacity:1; stop-color:#6A6A6B"/>
  </radialGradient>
  <radialGradient id="id7" gradientUnits="userSpaceOnUse" gradientTransform="matrix(0.498105 -1.74886 0.491855 0.634956 446 7526)" cx="3703.77" cy="2872.98" r="398.39" fx="3703.77" fy="2872.98">
   <stop offset="0" style="stop-opacity:1; stop-color:#FEFEFE"/>
   <stop offset="1" style="stop-opacity:1; stop-color:#6A6A6B"/>
  </radialGradient>
  <radialGradient id="id8" gradientUnits="userSpaceOnUse" gradientTransform="matrix(-1.51531 -0.435566 1.66898 -1.08147 5225 9813)" cx="4570.71" cy="3757.93" r="485.92" fx="4570.71" fy="3757.93">
   <stop offset="0" style="stop-opacity:1; stop-color:#D1D1D1"/>
   <stop offset="1" style="stop-opacity:1; stop-color:#969E9E"/>
  </radialGradient>
  <radialGradient id="id9" gradientUnits="userSpaceOnUse" gradientTransform="matrix(0.428194 -1.33047 0.301939 0.214606 2140 6518)" cx="4288.17" cy="1034.13" r="640.2" fx="4288.17" fy="1034.13">
   <stop offset="0" style="stop-opacity:1; stop-color:#FEFEFE"/>
   <stop offset="1" style="stop-opacity:1; stop-color:#94939F"/>
  </radialGradient>
  <radialGradient id="id10" gradientUnits="userSpaceOnUse" gradientTransform="matrix(-0.618943 -1.62736 0.388295 -0.115348 5199 7019)" cx="3497.08" cy="1190.7" r="688.27" fx="3497.08" fy="1190.7">
   <stop offset="0" style="stop-opacity:1; stop-color:#FEFEFE"/>
   <stop offset="1" style="stop-opacity:1; stop-color:#96969C"/>
  </radialGradient>
  <radialGradient id="id11" gradientUnits="userSpaceOnUse" gradientTransform="matrix(-1.14461 -6.11833E-006 1.22436E-005 -0.566305 3674 5294)" cx="1712.94" cy="3379.64" r="3267" fx="1712.94" fy="3379.64">
   <stop offset="0" style="stop-opacity:1; stop-color:#FEFEFE"/>
   <stop offset="1" style="stop-opacity:1; stop-color:#393185"/>
  </radialGradient>
  <radialGradient id="id12" gradientUnits="userSpaceOnUse" gradientTransform="matrix(-1.14461 -1.22402E-005 1.22436E-005 -1.13293 7121 8080)" xlink:href="#id11" cx="3320.39" cy="3788.05" r="3267" fx="3320.39" fy="3788.05">
  </radialGradient>
  <radialGradient id="id13" gradientUnits="userSpaceOnUse" gradientTransform="matrix(-1.14461 -5.25587E-006 1.22436E-005 -0.486477 3686 5438)" xlink:href="#id11" cx="1718.85" cy="3658.61" r="3229.84" fx="1718.85" fy="3658.61">
  </radialGradient>
 </defs>
 <g id="Layer_x0020_1">
  <metadata id="CorelCorpID_0Corel-Layer"/>
  <path class="fil0" d="M5903 2099c-2,10 -4,21 -5,32l0 0 0 1 -1 0c2,-11 4,-22 6,-33zm-6 36l0 1 0 -1 0 0zm0 1l0 1 0 -1zm0 -3l0 -1 0 0m-9 56c-1,7 -3,15 -4,23 1,-8 3,-16 4,-23zm-17 88l0 1 0 -1zm0 1c-3,12 -5,25 -8,37 3,-12 5,-25 8,-37zm-19 89c-3,11 -6,23 -9,34l0 1 0 0 0 1 0 0 0 1c3,-12 6,-25 9,-37zm-9 37l0 1 0 -1zm0 1l-1 0 1 0zm-1 0l0 1 0 -1zm0 1l0 0 0 0zm-12 48c-3,13 -6,25 -10,38 4,-13 7,-25 10,-38zm-23 88c-4,12 -8,24 -11,37l0 0 -1 1 0 1 0 0 0 1c4,-14 8,-27 12,-40zm-26 86c-4,12 -8,25 -12,37 4,-12 8,-25 12,-37zm-27 84c-5,13 -9,26 -14,39 5,-13 9,-26 14,-39zm-14 39l0 1 0 0 0 -1zm-16 45c-5,13 -10,26 -15,39 5,-13 10,-26 15,-38l0 -1zm-31 82l0 1 0 -1zm0 1l-1 1 1 -1zm-1 1c-5,12 -10,25 -15,38 5,-13 10,-26 15,-38zm-33 82c-6,13 -12,26 -17,39 5,-13 11,-26 17,-39zm-36 81c-6,13 -12,27 -19,41 7,-14 13,-28 19,-41zm-37 80c-6,13 -13,26 -20,40 7,-14 13,-27 20,-40zm-39 78l0 1 0 -1zm0 1l-1 0 1 0zm-1 0c-6,14 -13,27 -20,40 7,-13 14,-26 20,-40zm-40 77c-7,13 -14,26 -22,40 8,-14 15,-27 22,-40zm-43 78c-8,13 -16,27 -24,40 8,-13 16,-27 24,-40zm-44 74c-8,14 -17,27 -25,41 8,-14 17,-27 25,-41zm-47 75l0 1 0 -1zm0 1c-9,13 -17,26 -26,40 9,-14 17,-27 26,-40zm-48 72c-9,14 -18,27 -27,41 9,-14 18,-27 27,-41zm-27 41l-1 0 1 0zm-23 32c-9,13 -19,26 -28,39l0 1c9,-14 19,-27 28,-40zm-28 40l-1 0 1 0zm-23 30c-10,14 -20,27 -30,40 10,-13 20,-26 30,-40zm-30 40l-1 1 1 -1zm-23 29c-10,14 -21,28 -32,42l-1 0c11,-14 22,-28 33,-42zm-54 68c-11,14 -23,27 -34,41 11,-14 23,-27 34,-41zm-56 67c-12,13 -23,27 -35,40 12,-13 23,-27 35,-40zm-56 64l-1 1c-12,13 -25,27 -37,40 12,-13 25,-27 38,-41zm-62 66c-12,13 -24,26 -37,39 13,-13 25,-26 37,-39zm-60 62c-13,13 -26,26 -39,39l-1 1c14,-13 27,-27 40,-40zm-40 40l0 0 0 0zm-23 23c-13,12 -27,25 -40,38 13,-13 27,-26 40,-38zm-40 38l0 0 0 0zm-23 21c-14,12 -28,25 -41,37 13,-12 27,-25 41,-37zm-70 63c-13,11 -25,21 -38,32 13,-11 25,-21 38,-32zm-68 57c-12,11 -25,21 -38,32 13,-11 26,-21 38,-32zm-72 58c-12,10 -23,19 -35,28 12,-9 23,-18 35,-28zm-74 57c-10,8 -21,16 -32,24 11,-8 22,-16 32,-24zm-71 52c-11,8 -22,16 -33,24 11,-8 22,-16 33,-24zm-77 54c-10,7 -19,13 -29,19 10,-6 19,-12 29,-19zm-68 45c-11,7 -21,14 -32,20l0 0c11,-6 21,-13 32,-20zm-40 25l-2 2 2 -2zm-37 23c-10,6 -20,12 -29,18l0 0c9,-6 19,-12 29,-18zm-29 18l-1 0 -1 1 -6 3 0 0 6 -3m-6 4l-6 3 6 -3 0 0zm0 0l0 -1 0 1m-41 24c-9,5 -18,10 -28,15 10,-5 19,-10 28,-15zm-36 20l-7 4 7 -4 0 0zm-44 25c-8,4 -16,8 -24,12 8,-4 16,-8 24,-12zm-24 12l-1 1 1 -1zm-1 1l0 0 0 0 0 0zm-8 4l-11 6 11 -6 0 0zm0 0l1 0m-41 21c-10,5 -19,10 -28,15m-10 5l0 0 -12 6 12 -6 0 0zm9 -5c10,-5 19,-10 29,-15m-81 41c-9,4 -19,9 -28,13 9,-4 19,-9 28,-13zm-28 13l-1 1 0 0 1 -1zm-6 3l-12 6 12 -6 0 0zm0 0l0 0 0 0 0 0zm0 0l1 0 -1 0 0 0zm-48 22c-9,5 -19,9 -28,13l0 0m0 0l-1 1m-1 0l-1 1 0 0 -14 6 14 -6 1 -1 0 0zm3 -1c9,-4 18,-8 27,-13m-84 38c-8,3 -16,6 -24,10l-1 0c8,-3 17,-7 25,-10zm-28 11l-1 1 1 -1 0 0zm-1 1l0 0 -17 7 17 -7zm-55 22c-8,3 -15,6 -23,9m-4 2l0 0 -21 8 20 -8m1 0l4 -2 -1 1m1 -1c8,-3 15,-6 23,-9m-86 33l-20 8 20 -8zm-20 8l-1 0 -2 1 -1 0 -1 0 -24 9 24 -9m-57 20l-21 8c7,-3 14,-5 21,-8zm-21 8l-1 0 1 0zm-1 0l0 0 0 0zm0 0l-5 2 5 -2zm-5 2l0 0 0 0zm0 0l0 0 0 0zm0 0c-9,3 -18,6 -27,8 9,-2 18,-5 27,-8zm-56 18l-23 7c8,-2 15,-5 23,-7zm-29 9c-10,3 -19,6 -29,9 10,-3 19,-6 29,-9l0 0zm-60 18l-20 6 20 -6zm-20 6l-1 0 1 0zm-1 0l-1 0 1 0zm-1 0l-2 1 2 -1zm-2 1l-1 0 1 0zm-1 0c-9,3 -18,5 -27,8 9,-3 18,-5 27,-8zm-65 18l-19 5 0 0 1 -1 18 -4zm-21 5c-10,3 -20,5 -30,8 10,-3 20,-5 30,-8zm-69 17l-15 4 0 0 15 -4zm-15 4l-1 0 0 0 1 0m-4 1l-1 0c-11,2 -22,5 -33,7 11,-2 22,-5 34,-7l0 0zm-73 16l-13 2 0 0 13 -2zm-15 3c-12,2 -25,5 -38,7 13,-2 26,-5 38,-7l1 0 0 0 1 -1m-74 15l-14 2 14 -2zm-14 2l0 0 0 0zm0 0l-1 1 1 -1zm-1 1l-2 0 2 0zm-2 0l-1 0 1 0zm-1 0c-14,3 -27,5 -40,7 13,-2 26,-4 39,-7l1 0zm-71 12l-14 2 0 0 -5 1c-14,2 -29,4 -43,7 14,-2 28,-5 42,-7l1 0 0 0 5 -1 1 0 13 -2zm-93 14l-12 1 0 0 1 0 11 -1zm-17 2c-14,2 -28,4 -41,5 13,-1 27,-3 41,-5zm-78 9l-8 1 8 -1zm-13 2l0 0 0 0 0 0zm0 0c-14,1 -27,3 -40,4 13,-1 26,-3 40,-4zm-82 7l-6 1 6 -1zm-6 1l-1 0 1 0zm-1 0l-2 0 2 0zm-2 0l-1 0 1 0zm-1 0c-15,1 -30,3 -45,4 15,-1 30,-3 45,-4zm-87 6l-2 0 2 0zm-2 0l-1 0 1 0zm-1 0l-2 0 2 0zm-2 0c-16,1 -33,2 -50,3 17,-1 34,-2 50,-3zm-92 4l0 0 0 0zm0 0c-39,2 -79,3 -119,3 -40,0 -80,-1 -120,-3l239 0zm-239 0l0 0 0 0zm-42 -1c-17,-1 -33,-2 -50,-3 17,1 33,2 50,3zm-50 -3l-2 0 2 0zm-2 0l-1 0 1 0zm-1 0l-2 0 2 0zm-43 -2c-16,-1 -31,-3 -47,-4l1 0c15,1 30,3 46,4zm-50 -4l-6 -1 6 1 1 0 3 0m-51 -4c-13,-1 -26,-3 -39,-4 13,1 26,3 39,4zm-39 -4l-1 0 1 0zm-1 0l-5 -1 5 1zm-5 -1l-1 0 1 0zm-1 0l-9 -1 9 1zm-43 -5c-14,-1 -28,-3 -41,-5 13,2 27,4 41,5zm-48 -6l-14 -1 14 1 0 0zm-41 -5c-14,-2 -29,-4 -43,-7 14,3 29,5 43,7zm-43 -7l-1 0 1 0zm-1 0l-6 -1 6 1zm-6 -1l-15 -2 15 2zm-43 -7c-13,-2 -27,-4 -41,-7 14,3 28,5 41,7zm-41 -7l-6 -1 6 1zm-6 -1l-14 -2 14 2zm-46 -9c-13,-2 -26,-5 -38,-7 12,2 25,5 38,7zm-38 -7l-1 0 1 0zm-1 0l0 0 0 0zm0 0l-2 -1 2 1zm-2 -1l-13 -2 13 2zm-51 -11c-11,-2 -22,-5 -34,-7l0 0 1 0c11,3 22,5 33,7zm-39 -8l-16 -4 16 4zm-52 -13c-10,-2 -20,-5 -31,-8 11,3 21,6 31,8zm-31 -8l-1 0 1 0zm-1 0l-2 0 2 0zm-2 0l-21 -6 21 6zm-49 -13c-11,-3 -22,-6 -32,-9 10,3 21,6 32,9zm-32 -9l-9 -3 9 3zm-9 -3l-22 -6 22 6zm-45 -13c-11,-3 -21,-6 -32,-9 11,3 21,6 32,9zm-32 -9l-9 -3 9 3zm-9 -3l0 0 0 0zm0 0l-1 -1 1 1zm-1 -1c-8,-2 -17,-5 -25,-8 8,3 17,6 25,8zm-45 -14c-10,-3 -19,-6 -28,-9 9,3 18,6 28,9zm-28 -9l-1 -1 1 1zm-1 -1l-11 -3 11 3zm-11 -3l-1 0 1 0zm-1 0c-8,-3 -17,-6 -25,-9 8,3 17,6 25,9zm-48 -17c-8,-3 -16,-6 -24,-9 8,3 16,6 24,9zm-34 -12c-8,-3 -16,-6 -24,-9 8,3 16,6 24,9l1 0 -1 0zm-53 -20l-22 -8m-6 -3c-8,-3 -16,-6 -24,-9 8,3 16,6 23,9l1 0 0 0zm5 2l23 9m-86 -34l-19 -8 0 0 1 1 18 7zm-25 -11c-9,-3 -18,-7 -27,-11 8,4 17,7 26,11m-54 -23l-19 -8 0 0 19 8zm-28 -13c-10,-4 -19,-8 -29,-12 10,4 20,9 29,13m-51 -24l-18 -8 18 8zm-30 -14c-10,-5 -20,-9 -29,-14 9,5 19,9 29,14zm0 0l11 5 -11 -5 0 0zm11 5l1 1 0 0 -1 -1zm-63 -30l-15 -8 15 8zm-15 -8l-1 0 -1 0 -10 -5 -1 -1c-10,-5 -20,-10 -31,-16 10,5 20,10 30,16m-52 -28l-12 -6 0 0 12 6zm-24 -12c-10,-6 -19,-11 -29,-16 10,5 19,11 29,16l0 0zm0 0l1 0 -1 0m1 0l10 5m-68 -37l-9 -5 9 5zm-9 -5l-1 0 1 0zm-1 0l-1 0 1 0zm-1 0l-7 -4 7 4zm-7 -4l-1 -1 1 1zm-1 -1c-9,-5 -18,-11 -28,-16 10,5 19,11 28,16zm-60 -35l-5 -3 5 3zm-5 -3l-1 -1 1 1zm-1 -1l-1 0 1 0zm-1 0l-9 -5 9 5zm-9 -5l-1 -1 1 1zm-1 -1c-9,-5 -19,-11 -28,-17 9,6 19,12 28,17zm-62 -38l-3 -2 3 2zm-10 -6l-1 -1 0 0c-11,-7 -21,-13 -32,-20 11,7 22,14 33,21l0 0zm6 3l1 1 0 0m-79 -51c-10,-6 -20,-13 -30,-20 10,7 20,14 30,20zm-73 -49c-11,-8 -21,-15 -32,-23 11,8 21,15 32,23zm-72 -52c-11,-8 -21,-16 -32,-24 11,8 21,16 32,24zm-70 -53c-12,-9 -24,-18 -36,-28 12,10 24,19 36,28zm-69 -54c-13,-11 -26,-21 -39,-32 13,11 26,21 39,32zm-69 -57c-12,-11 -25,-21 -37,-32 12,11 25,21 37,32zm-66 -58c-14,-12 -28,-25 -41,-37 13,12 27,25 41,37zm-64 -58l-1 -1 1 1zm-1 -1c-14,-13 -27,-26 -41,-39 14,13 27,26 41,39zm-62 -60l-1 0 1 0zm-1 0l-1 -1 1 1zm-1 -1c-13,-13 -26,-26 -40,-40 14,14 27,27 40,40zm-62 -62c-12,-13 -25,-26 -38,-39 13,13 26,26 38,39zm-60 -64c-13,-13 -25,-27 -38,-40 13,13 25,27 38,40zm-38 -40l0 -1 0 1zm-21 -25c-12,-13 -24,-27 -36,-40 12,13 24,27 36,40zm-58 -66c-11,-14 -22,-27 -34,-41 12,14 23,27 34,41zm-55 -67c-11,-14 -22,-28 -33,-42 11,14 22,28 33,42zm-55 -70l0 -1 0 1zm0 -1c-10,-13 -21,-26 -31,-40 10,14 21,27 31,40zm-53 -70l0 0 0 0zm0 0c-10,-14 -19,-27 -29,-40 10,13 19,26 29,40zm-51 -72l0 0 0 0zm0 0c-10,-14 -19,-27 -28,-41 9,14 18,27 28,41zm-49 -73c-9,-14 -18,-27 -27,-40 9,13 18,26 27,40zm-27 -40l0 -1 0 1zm-22 -35c-8,-14 -16,-27 -24,-41 8,14 16,27 24,41zm-45 -75c-8,-13 -16,-27 -23,-40 7,13 15,27 23,40zm-45 -78c-7,-14 -14,-27 -22,-40 8,13 15,26 22,40zm-42 -78c-7,-13 -13,-26 -20,-39l0 0c6,13 13,26 20,39zm-20 -39l-1 -1 1 1zm-1 -1l0 -1 0 1zm-20 -40c-6,-12 -12,-25 -19,-38 7,13 13,26 19,38zm-37 -77l0 -1 0 1zm0 -1c-7,-13 -13,-27 -19,-40 6,13 12,27 19,40zm-19 -40l0 0 0 0zm0 0l0 -1 0 1zm-18 -42c-6,-13 -12,-26 -17,-39 5,13 11,26 17,39zm-35 -83c-6,-13 -11,-26 -16,-38m0 -1l0 -1 0 1 0 0zm0 1c5,13 11,26 16,38m-33 -83c-5,-13 -10,-26 -14,-38 4,12 9,25 14,38zm-14 -38l-1 -1 1 1zm-15 -43l-1 0 1 0zm-1 0l0 -1 0 1zm0 -1l0 -1 0 1zm0 -1l0 0 0 0zm0 0l-1 -1 1 1zm-1 -1c-4,-13 -9,-26 -13,-39 4,13 9,26 13,39zm-29 -86c-4,-12 -8,-25 -12,-37 4,12 8,25 12,37zm-25 -83l-1 -1 1 1zm-1 -1l0 0 0 0zm0 0l0 -1 0 1zm0 -1l0 -1 0 1zm0 -1l0 0 0 0zm0 0c-4,-13 -8,-25 -11,-38 3,13 7,25 11,38zm-25 -89c-4,-12 -7,-24 -10,-36 3,12 6,24 10,36zm-22 -84l0 0 0 0zm0 0l0 -1 0 1zm0 -1l0 0 0 0zm0 0l0 -1 0 1zm0 -1l0 -1 -1 0 0 -1 0 0 0 -1c-3,-11 -6,-23 -8,-34 3,12 6,25 9,37zm-21 -91c-3,-12 -5,-23 -8,-35 3,12 5,23 8,35zm-8 -35l0 -1 0 1zm-11 -60c-2,-10 -4,-19 -6,-29m-12 -70c-1,-7 -2,-13 -3,-19 1,6 2,12 3,19z"/>
  <path class="fil1" d="M5945 1543c0,31 0,61 -1,92 1,-31 1,-61 1,-92zm-1 94c0,9 -1,17 -1,26 0,-9 1,-17 1,-26zm-1 36c-1,17 -1,34 -2,52 1,-18 1,-35 2,-52zm-3 58c0,8 -1,16 -1,24 0,-8 1,-16 1,-24zm-2 38c-1,15 -2,31 -3,46 1,-15 2,-31 3,-46zm-4 55c0,9 -1,18 -2,28 1,-10 2,-19 2,-28zm-3 38c-1,15 -2,29 -4,44 2,-15 3,-29 4,-44zm-5 53c-1,10 -2,20 -3,30 1,-10 2,-20 3,-30zm-5 44c-1,12 -2,24 -4,35 2,-11 3,-23 4,-35zm-5 48c-2,12 -3,23 -5,34 2,-11 3,-22 5,-34zm-7 49c-1,8 -2,17 -4,26 2,-9 3,-18 4,-26zm-6 42c-2,11 -4,22 -5,33 1,-11 3,-22 5,-33zm-15 90c-2,12 -4,24 -7,36 3,-12 5,-24 7,-36zm-17 89c-3,13 -5,25 -8,38 3,-13 5,-25 8,-38zm-19 88c-3,13 -6,25 -9,38 3,-13 6,-25 9,-38zm-21 87c-4,15 -8,28 -12,42 4,-14 8,-27 12,-42zm-24 88c-4,12 -8,25 -11,38 3,-13 7,-26 11,-38zm-26 85c-4,14 -8,28 -13,42 5,-14 9,-28 13,-42zm-28 86c-4,13 -8,26 -13,39 5,-13 9,-26 13,-39zm-29 84c-5,13 -10,27 -15,40 5,-13 10,-27 15,-40zm-31 83c-6,14 -12,28 -18,43 6,-15 12,-29 18,-43zm-34 83c-6,13 -12,27 -18,40 6,-13 12,-27 18,-40zm-35 80c-6,13 -13,27 -19,40 6,-13 13,-27 19,-40zm-37 80c-7,14 -14,28 -22,43 8,-15 15,-29 22,-43zm-40 80c-7,14 -15,28 -22,42 7,-14 15,-28 22,-42zm-41 77c-8,15 -16,29 -24,43 8,-14 16,-28 24,-43zm-42 76c-9,14 -17,29 -25,43 8,-14 16,-29 25,-43zm-46 77c-8,14 -16,27 -25,41 9,-14 17,-27 25,-41zm-46 75c-9,13 -18,27 -27,40 9,-13 18,-27 27,-40zm-48 73c-9,13 -18,26 -27,40 9,-14 18,-27 27,-40zm-49 71c-10,13 -19,27 -29,41 10,-14 19,-28 29,-41zm-51 70c-11,14 -21,28 -31,41 10,-13 20,-27 31,-41zm-53 69c-11,15 -22,29 -33,43 11,-14 22,-28 33,-43zm-54 68c-12,14 -23,28 -35,42 12,-14 23,-28 35,-42zm-56 67c-13,14 -25,28 -37,42 12,-14 24,-28 37,-42zm-58 66c-13,13 -25,27 -38,41 13,-14 25,-28 38,-41zm-59 63c-13,14 -26,28 -39,41 13,-13 26,-27 39,-41zm-60 63c-14,13 -27,27 -41,40 14,-13 27,-27 41,-40zm-62 60c-14,14 -28,28 -43,41 15,-13 29,-27 43,-41zm-63 60c-15,14 -30,28 -46,41 16,-13 31,-27 46,-41zm-63 56c-16,15 -33,29 -49,43 16,-14 33,-28 49,-43zm-65 57c-17,14 -35,28 -52,43 17,-15 35,-29 52,-43zm-66 53c-18,15 -37,30 -55,44 18,-14 37,-29 55,-44zm-67 53c-20,15 -39,30 -59,44l0 0c20,-14 39,-29 59,-44zm-69 51c-21,15 -41,30 -62,44l0 1c21,-15 41,-30 62,-45zm-69 50c-22,15 -44,29 -66,44 22,-15 44,-29 66,-44zm-144 94c-22,14 -44,27 -66,41 22,-14 44,-27 66,-41zm-75 46c-23,14 -46,27 -68,40 22,-13 45,-26 68,-40zm-75 44c-24,13 -47,26 -71,38 24,-12 47,-25 71,-38zm-77 42c-23,12 -47,24 -70,36 23,-12 47,-24 70,-36zm-77 40c-24,12 -48,24 -73,35 25,-11 49,-23 73,-35zm-80 39c-24,11 -49,22 -74,34 25,-12 50,-23 74,-34zm-80 36c-25,12 -51,23 -76,33 25,-10 51,-21 76,-33zm-80 35c-26,11 -52,21 -79,32 27,-11 53,-21 79,-32zm-81 33c-26,10 -52,20 -79,29 27,-9 53,-19 79,-29zm-84 31c-26,10 -53,19 -79,28 26,-9 53,-18 79,-28zm-85 30c-27,9 -53,17 -80,25 27,-8 53,-16 80,-25zm-85 27c-27,8 -55,16 -82,24 27,-8 55,-16 82,-24zm-85 25c-28,8 -56,16 -84,23 28,-7 56,-15 84,-23zm-85 23c-28,7 -56,14 -85,21 29,-7 57,-14 85,-21zm-90 22c-27,6 -55,12 -83,18 28,-6 56,-12 83,-18zm-89 19c-28,6 -56,11 -84,16 28,-5 56,-10 84,-16zm-89 17c-29,5 -58,10 -87,15 29,-5 58,-10 87,-15zm-87 15c-30,4 -59,9 -88,12 29,-3 58,-8 88,-12zm-92 13c-29,4 -58,7 -87,10 29,-3 58,-6 87,-10zm-92 11c-29,3 -58,5 -87,8 29,-3 58,-5 87,-8zm-93 8c-29,3 -58,5 -88,6 30,-1 59,-3 88,-6zm-92 6c-30,2 -60,4 -91,4 31,0 61,-2 91,-4zm-330 4c-30,0 -61,-2 -91,-4 30,2 61,4 91,4zm-95 -4c-29,-1 -59,-3 -88,-6 29,3 59,5 88,6zm-94 -6c-29,-3 -57,-5 -86,-8 29,3 57,5 86,8zm-92 -9c-29,-3 -58,-6 -87,-10 29,4 58,7 87,10zm-91 -11c-29,-3 -58,-8 -87,-12 29,4 58,9 87,12zm-88 -12c-29,-5 -58,-10 -86,-15 28,5 57,10 86,15zm-92 -16c-28,-5 -56,-10 -84,-16 28,6 56,11 84,16zm-90 -17c-27,-6 -55,-12 -82,-18 27,6 55,12 82,18zm-89 -20c-28,-6 -55,-13 -83,-20 28,7 55,14 83,20zm-86 -21c-27,-7 -54,-14 -81,-21 27,7 54,14 81,21zm-87 -23c-26,-8 -53,-15 -79,-23 26,8 53,15 79,23zm-87 -26c-26,-8 -51,-16 -77,-25 26,9 51,17 77,25zm-86 -28c-26,-9 -51,-17 -76,-26 25,9 50,17 76,26zm-84 -29c-26,-10 -51,-19 -76,-29 25,10 50,19 76,29zm-82 -31c-25,-10 -49,-20 -74,-30 25,10 49,20 74,30zm-82 -33c-24,-11 -49,-21 -73,-32 24,11 49,21 73,32zm-82 -36c-24,-11 -48,-22 -71,-33 23,11 47,22 71,33zm-82 -38c-23,-11 -47,-22 -70,-34 23,12 47,23 70,34zm-79 -39c-22,-11 -45,-23 -67,-34 22,11 45,23 67,34zm-77 -40c-22,-12 -45,-24 -67,-36 22,12 45,24 67,36zm-76 -42c-22,-12 -44,-25 -66,-38 22,13 44,26 66,38zm-77 -45c-22,-13 -44,-26 -65,-39 21,13 43,26 65,39zm-144 -90c-22,-15 -44,-29 -65,-44 21,15 43,29 65,44zm-73 -49l0 -1c-21,-14 -41,-29 -61,-44 20,15 41,30 61,45zm-72 -52l0 0c-20,-14 -39,-29 -58,-44m-12 -9l0 0c-19,-14 -38,-29 -56,-44 18,15 37,30 56,44zm-69 -54c-18,-15 -35,-29 -52,-43 17,14 34,28 52,43zm-68 -57c-17,-14 -34,-28 -50,-43 16,15 33,29 50,43zm-67 -58c-15,-13 -31,-27 -46,-41 15,14 31,28 46,41zm-66 -60c-14,-13 -28,-27 -42,-40 14,13 28,27 42,40zm-64 -61c-13,-13 -27,-27 -40,-40 13,13 27,27 40,40zm-62 -62c-13,-13 -26,-27 -39,-41 13,14 26,28 39,41zm-60 -63c-12,-14 -25,-28 -38,-41 13,13 26,27 38,41zm-59 -65c-12,-14 -24,-28 -36,-42 12,14 24,28 36,42zm-58 -67c-11,-14 -23,-28 -34,-42 11,14 23,28 34,42zm-55 -67c-11,-14 -23,-28 -34,-43 11,15 23,29 34,43zm-55 -71c-11,-13 -21,-27 -31,-41 10,14 20,28 31,41zm-53 -70c-10,-14 -20,-28 -30,-41 10,13 20,27 30,41zm-51 -72c-9,-14 -19,-27 -27,-40 8,13 18,26 27,40zm-49 -73c-9,-13 -18,-27 -27,-40 9,13 18,27 27,40zm-48 -74c-8,-14 -17,-27 -25,-41 8,14 17,27 25,41zm-45 -75c-9,-14 -17,-29 -25,-43 8,14 16,29 25,43zm-44 -76c-8,-14 -16,-28 -24,-43 8,15 16,29 24,43zm-42 -78c-8,-14 -15,-28 -22,-42 7,14 14,28 22,42zm-41 -79c-7,-15 -14,-29 -21,-43 7,14 14,28 21,43zm-40 -83c-6,-13 -12,-26 -18,-39 6,13 12,26 18,39zm-36 -80c-6,-13 -12,-27 -17,-40 5,13 11,27 17,40zm-34 -80c-6,-15 -12,-29 -17,-43 5,14 11,28 17,43zm-33 -86c-6,-13 -11,-26 -15,-39 4,13 9,26 15,39zm-32 -85c-4,-13 -9,-26 -13,-39 4,13 9,26 13,39zm-28 -83c-4,-14 -9,-28 -13,-42 4,14 9,28 13,42zm-27 -89c-4,-13 -8,-26 -12,-38 4,12 8,25 12,38zm-24 -83c-4,-14 -7,-28 -11,-43 4,15 7,29 11,43zm-23 -92c-3,-13 -7,-25 -9,-38 2,13 6,25 9,38zm-21 -88c-2,-13 -5,-25 -8,-38 3,13 6,25 8,38zm-18 -91c-2,-12 -5,-24 -7,-36 2,12 5,24 7,36zm-16 -93c-2,-11 -4,-22 -6,-33 2,11 4,22 6,33zm-14 -90c-1,-11 -3,-22 -4,-34 1,12 3,23 4,34zm-6 -47c-1,-10 -2,-21 -4,-32 2,11 3,22 4,32zm-6 -49c-1,-10 -2,-20 -3,-30 1,10 2,20 3,30zm-4 -39c-1,-15 -2,-29 -4,-44 2,15 3,29 4,44zm-4 -52c-1,-10 -2,-20 -3,-30 1,10 2,20 3,30zm-4 -38c-1,-16 -2,-32 -3,-48 1,16 2,32 3,48zm-3 -60c-1,-8 -2,-16 -2,-25 0,9 1,17 2,25zm-2 -31c-1,-18 -2,-35 -2,-52 0,17 1,34 2,52zm-3 -62c0,-9 0,-17 -1,-26 1,9 1,17 1,26zm-1 -28c-1,-31 -1,-61 -1,-92 0,31 1,61 1,92z"/>
  <path class="fil2" d="M3840 113c2051,0 3713,1646 3713,3676 0,1990 -1598,3611 -3593,3674l-240 0c-1995,-63 -3592,-1684 -3592,-3674 0,-2030 1662,-3676 3712,-3676z"/>
  <g style="clip-path:url(#id0)">
   <g id="_269254808">
    <g>
     <g>
      <path id="1" class="fil3" d="M6297 7364c0,0 -119,18 -282,-132 -163,-150 -869,-627 -1191,-993 -322,-366 -604,-665 -604,-665 0,0 -256,-177 -547,-239 -291,-61 -723,-264 -723,-264 0,0 -476,-141 -1305,-88 -829,53 -2108,-159 -2412,-208 -305,-48 -988,-180 -988,-180 0,0 -221,-36 -229,-230 0,0 -168,-423 185,-423 353,0 2195,-210 4070,40 0,0 540,199 1194,22 0,0 582,-288 1248,129 0,0 438,188 367,700 0,0 -62,211 450,599 0,0 1010,865 1336,1614 0,0 97,124 -132,150 0,0 -247,71 -437,168z"/>
      <path class="fil4" d="M6284 7372c0,0 -119,18 -282,-132 -163,-150 -869,-626 -1190,-992 -322,-366 -605,-666 -605,-666 0,0 -255,-177 -546,-238 -291,-62 -724,-265 -724,-265 0,0 -476,-141 -1305,-88 -829,53 -2108,-159 -2412,-208 -304,-48 -988,-180 -988,-180 0,0 -220,-36 -229,-230 0,0 -168,-423 185,-423 353,0 2195,-210 4070,41 0,0 540,198 1194,21 0,0 582,-288 1249,129 0,0 437,188 366,700 0,0 -61,211 450,600 0,0 1010,864 1336,1614 0,0 97,123 -132,150 0,0 -247,70 -437,167z"/>
      <path class="fil5" d="M6519 1497c0,0 150,-113 295,-102 0,0 232,-15 494,77 0,0 208,48 94,202l-883 -177z"/>
      <path class="fil6" d="M3336 4078c0,0 608,-150 935,-635 292,-434 1655,-1580 2218,-1918 67,-40 122,-69 163,-84 0,0 129,-68 501,7 165,33 383,95 223,262 0,0 -731,1054 -1391,1533l-556 521c0,0 -448,535 -404,1028 0,0 -27,-1023 -1689,-714z"/>
      <path class="fil7" d="M7279 1503c0,0 -1394,1323 -1297,1738 0,0 856,-741 1429,-1588 0,0 71,-97 -132,-150z"/>
      <path class="fil8" d="M5426 3761c0,0 -288,-132 -707,-172 -419,-39 -216,300 -216,300 0,0 88,133 379,278 0,0 84,53 119,124 36,70 102,48 133,-31 0,0 111,-283 292,-499z"/>
      <path class="fil9" d="M3713 3925c0,0 630,-17 1040,309l199 185c0,0 109,89 145,-35 0,0 -56,60 -154,-88 -98,-148 -260,-216 -468,-309 0,0 -163,-75 -194,-234 0,0 9,-105 -167,-44l-18 -66c0,0 -159,177 -383,282z"/>
      <path class="fil10" d="M3170 730c0,0 371,344 512,984l300 -18c0,0 205,-589 425,-818 221,-229 -150,-458 -150,-458 0,0 -370,-159 -732,-36 0,0 -361,80 -355,346z"/>
      <path class="fil11" d="M4407 878c0,0 -273,360 -425,818l-64 4c0,0 106,-1249 339,-1280 0,0 375,233 150,458z"/>
      <path class="fil12" d="M3682 1714c0,0 -31,-115 167,-132 0,0 120,22 133,114l-5 1032 -300 0c0,0 3,-1031 5,-1014z"/>
      <path class="fil13" d="M3677 2728c0,0 -207,997 -480,1067 -273,70 1023,-105 1074,-352 0,0 -113,-9 -293,-713 -3,-12 -6,-24 -10,-37 0,0 -4,-75 -172,-49 0,0 -97,-4 -119,84z"/>
      <path class="fil14" d="M4358 3329l-191 182c0,0 -71,57 -196,40 -126,-18 -302,90 -302,90 0,0 -649,238 -957,256l-477 57c0,0 -374,31 -882,-4 0,0 768,39 1125,163 0,0 491,144 1149,-144 0,0 447,-187 731,-640z"/>
      <path class="fil15" d="M3978 2730c0,0 97,449 243,667 0,0 -259,-14 -243,-667z"/>
      <path class="fil16" d="M3671 1668c0,0 21,-82 178,-86 0,0 130,10 133,114 0,0 -98,-168 -311,-28z"/>
      <path class="fil17" d="M3677 2712c0,0 24,-74 187,-73 0,0 105,3 109,73 0,0 32,-103 -145,-103 0,0 -150,-1 -151,103z"/>
      <path class="fil18" d="M2039 4017c0,0 -129,58 -147,331 -17,274 -61,278 -255,283 -194,4 -1059,-84 -1222,-111 -163,-26 -114,-229 163,-242 278,-13 710,-110 812,-177 101,-66 233,-167 649,-84z"/>
      <path class="fil19" d="M4624 4181c0,0 -1025,-476 -1774,150 0,0 -459,441 194,802 652,362 1428,97 1428,97 0,0 624,-246 508,-636 0,0 -80,-281 -356,-413z"/>
      <path class="fil20" d="M4613 4186c0,0 -1011,-473 -1752,148 0,0 -452,438 192,797 644,358 1411,96 1411,96 0,0 615,-244 501,-632 0,0 -79,-278 -352,-409z"/>
      <g>
       <path class="fil21" d="M4741 4759c0,0 122,-574 -965,-596 0,0 -680,13 -829,454 0,0 -181,530 921,609 0,0 741,-9 873,-467z"/>
       <path class="fil22" d="M3410 4348c0,0 -22,-114 273,-141 0,0 454,-48 798,150 0,0 124,53 5,106 0,0 -393,-317 -1076,-115z"/>
       <path class="fil4" d="M3745 5204c0,0 -746,-75 -675,-516 71,-441 855,-388 855,-388 0,0 622,31 693,410 70,379 -600,476 -600,476 0,0 -110,27 -273,18z"/>
      </g>
      <path class="fil23" d="M4033 5480c0,0 538,2 867,-148 330,-151 -26,225 -454,269l-197 25c0,0 -50,-91 -216,-146z"/>
     </g>
     <path class="fil24" d="M3610 733l-4 8c-1,3 -4,4 -7,2l-57 -43 -61 15c-3,1 -6,-1 -6,-4l-3 -10c-1,-4 1,-7 3,-8l62 -15 30 -64c1,-3 4,-4 6,-2l8 6c2,2 3,5 2,8l-27 59 52 39c3,2 4,6 2,9zm-54 19c0,3 -1,6 -4,7l-56 14c-3,1 -6,-2 -7,-5l-2 -10c-1,-3 0,-6 3,-7l57 -14c2,-1 5,1 6,5l3 10zm-99 -109c0,-3 1,-6 4,-7l56 -14c3,-1 6,1 7,5l2 10c1,3 0,6 -3,7l-57 14c-2,1 -5,-1 -6,-5l-3 -10zm43 -97c-64,16 -100,93 -80,172 20,79 89,130 152,114 64,-16 100,-93 80,-172 -20,-79 -89,-130 -152,-114z"/>
     <path class="fil25" d="M3824 694c-8,-13 -17,-21 -28,-26l54 -68c3,-3 2,-6 1,-7 -1,-2 -3,-4 -8,-4l-17 1c-5,0 -9,1 -12,2 -3,1 -5,3 -7,6l-50 64 -11 1 -2 -59c-1,-4 -2,-6 -3,-8 -2,-1 -5,-2 -9,-2l-15 1c-4,0 -7,1 -9,3 -2,2 -3,4 -3,8l7 151c0,4 1,6 3,8 2,1 5,2 9,2l15 -1c4,0 7,-1 9,-3 2,-1 3,-4 2,-8l-2 -61 11 0c8,-1 14,0 18,2 4,2 8,6 12,12l29 46c2,4 4,6 7,7 3,1 7,1 14,1l15 -1c8,0 8,-4 8,-6 0,-2 -1,-3 -2,-5l-36 -56z"/>
     <path class="fil25" d="M4102 611l-16 -1c-5,0 -8,0 -10,1 -2,1 -4,3 -5,7l-28 86c-1,6 -3,11 -4,17 0,-6 -1,-12 -3,-18l-20 -88c0,-4 -2,-6 -4,-8 -2,-1 -5,-2 -9,-2l-15 -1c-4,-1 -7,0 -9,1 -2,1 -4,3 -6,6l-33 86c-2,5 -3,11 -5,17 0,-10 -1,-16 -1,-18l-15 -89c-1,-4 -2,-6 -5,-8 -2,-1 -5,-2 -9,-2l-19 -1c-4,-1 -7,0 -8,2 -1,1 -1,2 -1,3 0,2 0,3 0,5l33 156c0,3 2,5 4,7 2,1 5,2 9,2l15 1c3,0 6,0 9,-1 2,-1 4,-3 5,-6l34 -92c2,-4 3,-8 4,-12 1,4 1,9 2,13l21 95c1,4 4,9 13,9l15 1c4,0 7,0 9,-1 2,-1 4,-3 5,-6l54 -150c1,-1 2,-3 2,-4 0,-2 -1,-3 -1,-4 -2,-2 -4,-3 -8,-3z"/>
     <path class="fil25" d="M4344 705c-1,-2 -3,-4 -6,-6l-15 -6c-4,-2 -7,-2 -10,-2 -3,0 -5,2 -7,5l-53 73c-3,5 -7,10 -10,15 2,-6 3,-12 3,-18l9 -90c1,-4 0,-7 -1,-9 -2,-2 -5,-3 -9,-5l-13 -5c-4,-2 -7,-3 -9,-2 -3,0 -5,2 -7,4l-59 71c-3,4 -7,9 -10,14 3,-9 4,-15 5,-17l13 -89c1,-4 0,-7 -2,-9 -1,-2 -4,-3 -8,-5l-17 -7c-4,-2 -7,-2 -9,-1 -1,1 -2,2 -2,3 -1,2 -1,3 -1,5l-18 158c0,3 0,6 2,8 1,2 4,3 8,5l13 5c4,2 7,2 9,2 2,0 5,-2 7,-4l61 -76c3,-3 6,-7 8,-10 -1,4 -2,8 -2,12l-10 98c-1,3 0,9 9,12l14 6c3,1 6,2 9,2 2,-1 5,-2 7,-5l98 -125c1,-1 2,-2 3,-3 0,-2 0,-3 0,-4z"/>
    </g>
   </g>
  </g>
  <path class="fil26" d="M3840 113c2051,0 3713,1646 3713,3676 0,1990 -1598,3611 -3593,3674l-240 0c-1995,-63 -3592,-1684 -3592,-3674 0,-2030 1662,-3676 3712,-3676z"/>
 </g>
</svg>
