<?xml version="1.0" encoding="UTF-8"?>
<!DOCTYPE svg PUBLIC "-//W3C//DTD SVG 1.1//EN" "http://www.w3.org/Graphics/SVG/1.1/DTD/svg11.dtd">
<!-- Creator: CorelDRAW X7 -->
<svg xmlns="http://www.w3.org/2000/svg" xml:space="preserve" width="100mm" height="92.4278mm" version="1.1" style="shape-rendering:geometricPrecision; text-rendering:geometricPrecision; image-rendering:optimizeQuality; fill-rule:evenodd; clip-rule:evenodd"
viewBox="0 0 10000 9243"
 xmlns:xlink="http://www.w3.org/1999/xlink">
 <defs>
  <style type="text/css">
   <![CDATA[
    .fil0 {fill:#ED3237;fill-rule:nonzero}
   ]]>
  </style>
 </defs>
 <g id="Layer_x0020_1">
  <metadata id="CorelCorpID_0Corel-Layer"/>
  <path class="fil0" d="M6959 5975l-183 183c-62,62 -163,62 -225,0l-1405 -1404 -1988 0c-88,0 -159,-71 -159,-159l0 -258c0,-88 71,-160 159,-160l1987 0 1404 -1403c62,-62 163,-62 225,0l183 183c62,61 62,163 0,225l-1283 1283 1285 1285c62,62 62,164 0,225zm-1814 128c0,87 -71,159 -159,159l-1828 0c-88,0 -159,-72 -159,-159l0 -259c0,-88 71,-159 159,-159l1828 0c88,0 159,71 159,159l0 259zm-2146 -3274c0,-87 71,-159 159,-159l1828 0c88,0 159,72 159,159l0 259c0,87 -71,159 -159,159l-1828 0c-88,0 -159,-72 -159,-159l0 -259zm2036 -2136c-2066,0 -3747,1682 -3747,3749 0,2067 1681,3748 3747,3748 2067,0 3749,-1681 3749,-3748 0,-2067 -1682,-3749 -3749,-3749z"/>
 </g>
</svg>
