<?xml version="1.0" encoding="UTF-8"?>
<!DOCTYPE svg PUBLIC "-//W3C//DTD SVG 1.1//EN" "http://www.w3.org/Graphics/SVG/1.1/DTD/svg11.dtd">
<!-- Creator: CorelDRAW X7 -->
<svg xmlns="http://www.w3.org/2000/svg" xml:space="preserve" width="230.364mm" height="92.4278mm" version="1.1" style="shape-rendering:geometricPrecision; text-rendering:geometricPrecision; image-rendering:optimizeQuality; fill-rule:evenodd; clip-rule:evenodd"
viewBox="0 0 23036 9243"
 xmlns:xlink="http://www.w3.org/1999/xlink">
 <defs>
  <style type="text/css">
   <![CDATA[
    .fil1 {fill:#373435;fill-rule:nonzero}
    .fil0 {fill:#ED3237;fill-rule:nonzero}
   ]]>
  </style>
 </defs>
 <g id="Layer_x0020_1">
  <metadata id="CorelCorpID_0Corel-Layer"/>
  <path class="fil0" d="M7082 6138l-183 183c-62,62 -162,62 -224,0l-1405 -1404 -1988 0c-88,0 -159,-72 -159,-159l0 -259c0,-87 71,-159 159,-159l1987 0 1404 -1403c61,-62 163,-62 225,0l183 182c62,62 62,164 0,226l-1284 1283 1285 1285c62,62 62,163 0,225zm-1814 127c0,88 -71,159 -159,159l-1827 0c-88,0 -159,-71 -159,-159l0 -258c0,-88 71,-159 159,-159l1827 0c88,0 159,71 159,159l0 258zm-2145 -3273c0,-87 71,-159 159,-159l1827 0c88,0 159,72 159,159l0 259c0,87 -71,159 -159,159l-1827 0c-88,0 -159,-72 -159,-159l0 -259zm2036 -2136c-2067,0 -3748,1682 -3748,3748 0,2068 1681,3749 3748,3749 2066,0 3748,-1681 3748,-3749 0,-2066 -1682,-3748 -3748,-3748z"/>
  <polygon class="fil1" points="10384,6375 10384,6280 9870,6280 9870,7201 10384,7201 10384,7105 9977,7105 9977,6766 10359,6766 10359,6672 9977,6672 9977,6375 "/>
  <polygon class="fil1" points="10953,7104 10953,6280 10846,6280 10846,7201 11359,7201 11359,7104 "/>
  <polygon class="fil1" points="12287,6375 12287,6280 11774,6280 11774,7201 12287,7201 12287,7105 11880,7105 11880,6766 12262,6766 12262,6672 11880,6672 11880,6375 "/>
  <path class="fil1" d="M12900 7020c-55,-66 -84,-159 -84,-280 0,-117 29,-209 88,-276 58,-67 139,-101 239,-101 70,0 140,16 210,49l45 -92c-73,-35 -156,-53 -253,-53 -91,0 -170,19 -237,58 -67,38 -118,93 -154,165 -35,72 -53,154 -53,249 0,152 37,269 111,351 73,83 178,124 314,124 93,0 172,-12 236,-36l0 -94c-82,23 -155,35 -220,35 -104,0 -185,-33 -242,-99z"/>
  <polygon class="fil1" points="13705,6280 13705,6375 13997,6375 13997,7201 14105,7201 14105,6375 14396,6375 14396,6280 "/>
  <path class="fil1" d="M15047 6726l-147 0 0 -352 140 0c79,0 137,13 173,40 36,27 53,71 53,132 0,60 -17,105 -53,135 -35,30 -90,45 -166,45zm145 61c123,-43 185,-125 185,-247 0,-86 -27,-152 -81,-195 -53,-43 -137,-65 -250,-65l-254 0 0 921 108 0 0 -383 192 0 223 383 127 0 -250 -414z"/>
  <polygon class="fil1" points="15849,7201 15956,7201 15956,6280 15849,6280 "/>
  <path class="fil1" d="M16618 7020c-56,-66 -85,-159 -85,-280 0,-117 29,-209 88,-276 59,-67 139,-101 240,-101 70,0 139,16 208,49l46 -92c-72,-35 -156,-53 -253,-53 -91,0 -170,19 -237,58 -67,38 -118,93 -153,165 -36,72 -53,154 -53,249 0,152 36,269 110,351 74,83 179,124 314,124 94,0 173,-12 237,-36l0 -94c-83,23 -156,35 -221,35 -104,0 -184,-33 -241,-99z"/>
  <path class="fil1" d="M17671 6812l109 -285c16,-49 30,-93 39,-134 15,53 29,98 43,134l108 285 -299 0zm195 -536l-90 0 -365 925 109 0 113 -293 370 0 115 293 110 0 -362 -925z"/>
  <polygon class="fil1" points="18719,7104 18719,6280 18613,6280 18613,7201 19126,7201 19126,7104 "/>
  <path class="fil1" d="M20005 6802c-36,-39 -102,-76 -198,-110 -58,-21 -101,-40 -129,-57 -28,-17 -47,-36 -59,-56 -12,-20 -18,-46 -18,-78 0,-44 16,-78 48,-102 32,-24 76,-36 133,-36 72,0 146,15 222,48l33 -94c-77,-33 -161,-50 -253,-50 -87,0 -157,21 -211,63 -54,42 -80,98 -80,169 0,68 18,123 55,165 37,41 98,78 184,108 61,22 106,42 137,59 30,18 51,36 63,57 14,20 20,46 20,78 0,49 -18,86 -54,113 -36,28 -90,41 -161,41 -44,0 -88,-4 -133,-14 -45,-9 -86,-22 -123,-38l0 104c59,28 142,42 252,42 101,0 180,-23 239,-68 59,-46 88,-109 88,-190 0,-63 -18,-114 -55,-154z"/>
  <path class="fil0" d="M11828 4323c-124,-245 -278,-418 -462,-515l980 -1251c51,-64 45,-116 31,-148 -14,-32 -51,-71 -137,-71l-290 0c-98,0 -167,9 -210,26 -46,19 -89,58 -132,117l-900 1187 -179 0 0 -1133c0,-68 -14,-117 -47,-149 -31,-32 -80,-48 -148,-48l-259 0c-70,0 -120,15 -153,47 -33,33 -49,81 -49,150l0 2912c0,69 16,118 49,150 33,32 83,48 153,48l259 0c68,0 117,-16 148,-49 33,-32 47,-81 47,-149l0 -1179 191 0c140,0 247,20 316,58 61,40 124,120 187,238l457 922c32,65 73,109 121,130 45,19 119,29 227,29l261 0c134,0 148,-78 148,-111 0,-30 -11,-64 -33,-106l-576 -1105z"/>
  <path class="fil0" d="M16360 2338l-277 0c-75,0 -130,11 -166,34 -40,25 -67,70 -79,134l-364 1699c-21,107 -39,216 -52,325 -17,-111 -40,-222 -69,-332l-447 -1675c-13,-65 -41,-111 -81,-137 -40,-23 -93,-35 -167,-35l-244 0c-71,0 -123,12 -160,36 -38,25 -67,69 -85,133l-458 1678c-29,109 -51,220 -66,333 -23,-192 -37,-301 -43,-332l-372 -1692c-13,-65 -39,-110 -79,-135 -36,-23 -91,-34 -166,-34l-319 0c-70,0 -115,18 -139,55 -11,19 -16,41 -16,67 0,25 5,53 14,81l744 2949c13,57 41,99 81,122 37,22 89,33 155,33l246 0c68,0 118,-11 153,-32 40,-23 66,-66 79,-126l480 -1801c23,-76 40,-154 53,-233 13,78 28,157 48,236l476 1801c15,70 68,155 232,155l248 0c69,0 120,-11 155,-32 40,-23 67,-66 79,-127l746 -2942c10,-31 15,-58 15,-85 -2,-27 -8,-48 -20,-66 -23,-37 -68,-55 -135,-55z"/>
  <path class="fil0" d="M20584 2393c-23,-37 -68,-55 -135,-55l-277 0c-76,0 -130,11 -167,34 -39,25 -66,70 -78,134l-364 1699c-21,107 -39,216 -53,325 -16,-111 -39,-222 -69,-332l-447 -1675c-12,-65 -40,-111 -81,-137 -38,-23 -93,-35 -166,-35l-244 0c-71,0 -123,12 -160,36 -38,25 -67,69 -84,133l-459 1678c-29,109 -51,220 -67,333 -21,-192 -35,-301 -42,-332l-372 -1692c-13,-65 -40,-110 -79,-135 -37,-23 -91,-34 -167,-34l-319 0c-69,0 -114,18 -137,55 -12,19 -17,41 -17,67 0,25 5,53 13,81l745 2949c13,57 41,99 81,122 37,22 88,33 156,33l245 0c68,0 119,-11 154,-32 39,-23 65,-66 78,-126l480 -1801c23,-76 40,-154 53,-233 12,78 28,157 48,236l476 1801c16,70 68,155 232,155l248 0c69,0 120,-11 155,-32 40,-23 66,-66 79,-127l746 -2942c10,-31 15,-58 15,-85 -2,-27 -8,-48 -20,-66z"/>
  <path class="fil1" d="M21141 2613l88 0c43,0 72,-6 87,-18 16,-13 23,-30 23,-50 0,-14 -4,-26 -11,-36 -7,-11 -18,-19 -31,-24 -13,-5 -37,-8 -73,-8l-83 0 0 136zm-73 255l0 -452 155 0c53,0 92,4 116,12 24,9 42,23 56,44 14,21 22,43 22,66 0,33 -12,62 -36,86 -23,25 -54,39 -93,42 15,7 28,15 38,24 18,18 40,47 67,90l55 88 -89 0 -40 -71c-32,-56 -57,-91 -76,-106 -14,-10 -33,-15 -59,-15l-43 0 0 192 -73 0zm185 -583c-59,0 -117,15 -173,45 -56,31 -99,74 -131,130 -31,56 -47,115 -47,176 0,60 16,119 47,174 30,55 74,99 129,130 56,31 114,46 175,46 60,0 118,-15 174,-46 55,-31 98,-75 129,-130 31,-55 47,-114 47,-174 0,-61 -16,-120 -47,-176 -32,-56 -75,-99 -131,-130 -56,-30 -114,-45 -172,-45zm0 -69c70,0 139,18 206,54 68,36 120,88 157,155 38,67 56,138 56,211 0,72 -18,142 -55,209 -37,66 -89,118 -156,155 -66,37 -136,56 -208,56 -73,0 -143,-19 -210,-56 -66,-37 -118,-89 -155,-155 -37,-67 -55,-137 -55,-209 0,-73 18,-144 55,-211 38,-67 90,-119 158,-155 67,-36 137,-54 207,-54z"/>
 </g>
</svg>
