<?xml version="1.0" encoding="UTF-8"?>
<!DOCTYPE svg PUBLIC "-//W3C//DTD SVG 1.1//EN" "http://www.w3.org/Graphics/SVG/1.1/DTD/svg11.dtd">
<!-- Creator: CorelDRAW X7 -->
<svg xmlns="http://www.w3.org/2000/svg" xml:space="preserve" width="210mm" height="297mm" version="1.1" style="shape-rendering:geometricPrecision; text-rendering:geometricPrecision; image-rendering:optimizeQuality; fill-rule:evenodd; clip-rule:evenodd"
viewBox="0 0 21000 29700"
 xmlns:xlink="http://www.w3.org/1999/xlink">
 <defs>
  <style type="text/css">
   <![CDATA[
    .fil1 {fill:none}
    .fil0 {fill:url(#id3)}
   ]]>
  </style>
   <clipPath id="id0">
    <path d="M14987 10575c2050,0 3712,1646 3712,3676 0,1990 -1598,3611 -3593,3673l-239 0c-1995,-62 -3593,-1683 -3593,-3673 0,-2030 1662,-3676 3713,-3676z"/>
   </clipPath>
    <clipPath id="id1">
     <path d="M14987 10575c2050,0 3712,1646 3712,3676 0,1990 -1598,3611 -3593,3673l-239 0c-1995,-62 -3593,-1683 -3593,-3673 0,-2030 1662,-3676 3713,-3676z"/>
    </clipPath>
    <clipPath id="id2">
     <path d="M14987 10575c2050,0 3712,1646 3712,3676 0,1990 -1598,3611 -3593,3673l-239 0c-1995,-62 -3593,-1683 -3593,-3673 0,-2030 1662,-3676 3713,-3676z"/>
    </clipPath>
  <radialGradient id="id3" gradientUnits="userSpaceOnUse" gradientTransform="matrix(-1.55077 0.0586667 -0.058066 -1.53493 39055 35243)" cx="14986.6" cy="14249.7" r="3712.5" fx="14986.6" fy="14249.7">
   <stop offset="0" style="stop-opacity:1; stop-color:#FEFEFE"/>
   <stop offset="1" style="stop-opacity:1; stop-color:#F7A71E"/>
  </radialGradient>
 </defs>
 <g id="Layer_x0020_1">
  <metadata id="CorelCorpID_0Corel-Layer"/>
  <path class="fil0" d="M14987 10575c2050,0 3712,1646 3712,3676 0,1990 -1598,3611 -3593,3673l-239 0c-1995,-62 -3593,-1683 -3593,-3673 0,-2030 1662,-3676 3713,-3676z"/>
  <g style="clip-path:url(#id0)">
   <g id="_269937248">
   </g>
   <g style="clip-path:url(#id1)">
    <image id="Table_x0020_Fan.png" x="10705" y="10566" width="8185" height="7517" xlink:href="Table Fan Icon Below Menu Bar_Images\Table Fan Icon Below Menu Bar_ImgID1.png"/>
   </g>
   <g style="clip-path:url(#id2)">
   </g>
  </g>
  <path class="fil1" d="M14987 10575c2050,0 3712,1646 3712,3676 0,1990 -1598,3611 -3593,3673l-239 0c-1995,-62 -3593,-1683 -3593,-3673 0,-2030 1662,-3676 3713,-3676z"/>
 </g>
</svg>
